<?xml version="1.0" encoding="UTF-8" standalone="no"?>
<!-- Created with Inkscape (http://www.inkscape.org/) -->

<svg
   xmlns:dc="http://purl.org/dc/elements/1.1/"
   xmlns:cc="http://creativecommons.org/ns#"
   xmlns:rdf="http://www.w3.org/1999/02/22-rdf-syntax-ns#"
   xmlns:svg="http://www.w3.org/2000/svg"
   xmlns="http://www.w3.org/2000/svg"
   xmlns:sodipodi="http://sodipodi.sourceforge.net/DTD/sodipodi-0.dtd"
   xmlns:inkscape="http://www.inkscape.org/namespaces/inkscape"
   width="144.15199mm"
   height="17.573999mm"
   viewBox="0 0 144.15199 17.573999"
   version="1.1"
   id="svg8"
   inkscape:version="0.92.4 (5da689c313, 2019-01-14)"
   sodipodi:docname="logo_big.svg">
  <defs
     id="defs2" />
  <sodipodi:namedview
     id="base"
     pagecolor="#ffffff"
     bordercolor="#666666"
     borderopacity="1.0"
     inkscape:pageopacity="0.0"
     inkscape:pageshadow="2"
     inkscape:zoom="5.6"
     inkscape:cx="3.2773563"
     inkscape:cy="67.403873"
     inkscape:document-units="mm"
     inkscape:current-layer="layer1"
     showgrid="false"
     showguides="false"
     inkscape:window-width="1920"
     inkscape:window-height="1017"
     inkscape:window-x="-8"
     inkscape:window-y="-8"
     inkscape:window-maximized="1" />
  <metadata
     id="metadata5">
    <rdf:RDF>
      <cc:Work
         rdf:about="">
        <dc:format>image/svg+xml</dc:format>
        <dc:type
           rdf:resource="http://purl.org/dc/dcmitype/StillImage" />
        <dc:title></dc:title>
      </cc:Work>
    </rdf:RDF>
  </metadata>
  <g
     inkscape:label="Layer 1"
     inkscape:groupmode="layer"
     id="layer1"
     transform="translate(0,-279.426)">
    <g
       aria-label="DomsGame"
       style="font-style:normal;font-variant:normal;font-weight:normal;font-stretch:normal;font-size:25.39999962px;line-height:1.25;font-family:'Eras Bold ITC';-inkscape-font-specification:'Eras Bold ITC';letter-spacing:0px;word-spacing:0px;fill:#ff9900;fill-opacity:1;stroke:none;stroke-width:0.26458332"
       id="text3715">
      <path
         d="M -4.2840838e-8,296.67755 Q 0.27285152,293.84982 0.37207026,292.1507 q 0.14882813,-2.53008 0.29765625,-6.54844 0.11162109,-3.07578 0.11162109,-4.40283 v -1.45108 q 1.4510742,0.0372 2.5052734,0.0372 1.0169922,0 2.6665039,-0.0496 1.6495117,-0.062 3.1005859,-0.062 1.6619142,0 2.9145502,0.19844 1.252637,0.19843 2.331641,0.81855 1.091406,0.62012 1.823145,1.62471 0.731738,1.00459 1.116211,2.35644 0.384472,1.33946 0.384472,2.76573 0,1.40146 -0.297656,2.70371 -0.297656,1.28984 -0.830957,2.33164 -0.533301,1.04179 -1.252637,1.79834 -0.706933,0.74414 -1.624707,1.27744 -0.682129,0.39687 -1.37666,0.62012 -0.694531,0.22324 -1.897559,0.35966 -1.3394526,0.14883 -3.0385737,0.14883 l -5.0105468,-0.0372 q -0.7069336,0 -2.294433542840838,0.0372 z M 5.3578124,292.94445 q 0.6821289,0.062 1.4262695,0.062 1.265039,0 2.2572265,-0.22324 0.9921876,-0.22325 1.7363286,-0.95499 0.756542,-0.73173 1.11621,-1.87275 0.359668,-1.15342 0.359668,-2.35644 0,-1.47588 -0.5333,-2.48047 -0.533301,-1.017 -1.42627,-1.41387 -0.8805663,-0.39688 -2.4060545,-0.39688 -0.8929688,0 -2.1083984,0.0744 z"
         style="font-style:normal;font-variant:normal;font-weight:normal;font-stretch:normal;font-size:25.39999962px;font-family:'Eras Bold ITC';-inkscape-font-specification:'Eras Bold ITC';fill:#ff9900;fill-opacity:1;stroke-width:0.26458332"
         id="path4542" />
      <path
         d="m 26.851073,283.6923 q 1.537891,0 2.951758,0.47129 1.426269,0.47129 2.406054,1.36425 0.979785,0.88057 1.438672,2.0712 0.471289,1.17822 0.471289,2.54248 0,1.32705 -0.421679,2.53007 -0.409278,1.19063 -1.401465,2.24483 -0.992188,1.0418 -2.530078,1.56269 -1.525489,0.5209 -3.237012,0.5209 -1.575098,0 -3.026172,-0.45888 -1.451074,-0.45889 -2.430859,-1.33946 -0.967383,-0.88056 -1.463477,-2.1084 -0.483691,-1.22783 -0.483691,-2.57968 0,-1.35186 0.471289,-2.57969 0.483691,-1.22783 1.513086,-2.20762 1.041797,-0.97978 2.567285,-1.50068 1.525488,-0.5333 3.175,-0.5333 z m -0.08682,3.64629 q -0.79375,0 -1.413868,0.40927 -0.620117,0.40928 -0.942578,1.20303 -0.310058,0.78135 -0.310058,1.71152 0,1.36426 0.682129,2.096 0.682128,0.71934 1.711523,0.71934 0.781348,0 1.401465,-0.40928 0.620117,-0.42168 0.930176,-1.22783 0.32246,-0.81856 0.32246,-1.74873 0,-0.76895 -0.248046,-1.38907 -0.248047,-0.62011 -0.818555,-0.99218 -0.558106,-0.37207 -1.314648,-0.37207 z"
         style="font-style:normal;font-variant:normal;font-weight:normal;font-stretch:normal;font-size:25.39999962px;font-family:'Eras Bold ITC';-inkscape-font-specification:'Eras Bold ITC';fill:#ff9900;fill-opacity:1;stroke-width:0.26458332"
         id="path4544" />
      <path
         d="m 35.979198,296.67755 0.347265,-5.97793 0.198438,-4.67568 0.0248,-2.00918 q 1.364258,0.0248 2.406055,0.0248 1.178223,0 2.294434,-0.0248 l -0.08682,1.64951 q 0.384473,-0.49609 0.644922,-0.75654 0.272852,-0.27285 0.657324,-0.5085 0.384473,-0.24805 0.79375,-0.38447 0.409278,-0.14883 0.917774,-0.23565 0.508496,-0.0868 1.066601,-0.0868 0.63252,0 1.165821,0.11162 0.5333,0.0992 0.917773,0.26045 0.384473,0.16123 0.669727,0.37207 0.285253,0.21084 0.496093,0.48369 0.223242,0.26045 0.508496,0.76894 0.545704,-0.79375 1.153418,-1.20302 0.607715,-0.40928 1.37666,-0.59531 0.781348,-0.19844 1.599903,-0.19844 1.079004,0 2.033984,0.31006 0.954981,0.31005 1.562695,1.079 0.620118,0.75654 0.620118,1.97197 0,0.57051 -0.08682,1.72393 -0.07441,1.15342 -0.223242,3.96875 -0.136426,2.80293 -0.148828,3.93154 -1.141016,-0.0248 -2.207617,-0.0248 -1.302246,0 -2.728516,0.0248 0.124024,-1.5751 0.248047,-3.94394 0.136426,-2.38125 0.136426,-3.29903 0,-0.79375 -0.186035,-1.17822 -0.186035,-0.39688 -0.483692,-0.5333 -0.285254,-0.14883 -0.632519,-0.14883 -0.372071,0 -0.644922,0.13643 -0.297656,0.14882 -0.520899,0.45888 -0.297656,0.40928 -0.483691,1.0294 -0.148828,0.48369 -0.235644,1.47588 -0.08682,1.01699 -0.136426,2.6789 l -0.09922,3.32383 q -1.327051,-0.0248 -2.393652,-0.0248 -1.091407,0 -2.567285,0.0248 0.111621,-1.10381 0.260449,-3.7083 0.148828,-2.60449 0.148828,-3.48506 0,-0.74414 -0.148828,-1.11621 -0.148828,-0.37207 -0.42168,-0.59531 -0.260449,-0.22324 -0.706933,-0.22324 -0.483692,0 -0.84336,0.28525 -0.359668,0.28525 -0.620117,0.81855 -0.248047,0.53331 -0.359668,1.47588 -0.09922,0.93018 -0.186035,2.85254 -0.08682,1.92237 -0.111621,3.6959 -1.500684,-0.0248 -2.43086,-0.0248 -1.029394,0 -2.554882,0.0248 z"
         style="font-style:normal;font-variant:normal;font-weight:normal;font-stretch:normal;font-size:25.39999962px;font-family:'Eras Bold ITC';-inkscape-font-specification:'Eras Bold ITC';fill:#ff9900;fill-opacity:1;stroke-width:0.26458332"
         id="path4546" />
      <path
         d="m 59.506445,296.44191 q -0.04961,-0.54571 -0.09922,-1.14102 -0.04961,-0.60771 -0.161231,-1.66191 l -0.09922,-0.89297 q 1.203028,0.47129 2.071192,0.70693 0.868164,0.22324 1.599902,0.22324 0.607715,0 0.979785,-0.11162 0.384473,-0.11162 0.558106,-0.32246 0.173632,-0.21084 0.173632,-0.43408 0,-0.19844 -0.136425,-0.38447 -0.124024,-0.19844 -0.582911,-0.5333 -1.016992,-0.74414 -1.798339,-1.35186 -0.768946,-0.60771 -1.165821,-1.079 -0.384472,-0.47129 -0.595312,-1.01699 -0.198438,-0.54571 -0.198438,-1.12862 0,-1.02939 0.582911,-1.92236 0.595312,-0.89297 1.736328,-1.28985 1.153418,-0.40927 2.802929,-0.40927 1.723926,0 4.402832,0.44648 l 0.198438,3.48506 q -1.500684,-0.59531 -2.889746,-0.59531 -0.979785,0 -1.42627,0.19844 -0.434082,0.19843 -0.434082,0.60771 0,0.13643 0.04961,0.26045 0.04961,0.12402 0.173632,0.26045 0.136426,0.13642 0.322461,0.28525 0.198438,0.13643 0.942578,0.65733 0.744141,0.5209 1.165821,0.85576 0.694531,0.5457 1.054199,1.01699 0.37207,0.45889 0.558105,0.99219 0.198438,0.5209 0.198438,1.10381 0,0.88056 -0.434082,1.6247 -0.42168,0.73174 -1.289844,1.22784 -0.855762,0.49609 -1.860351,0.68212 -1.00459,0.19844 -2.071192,0.19844 -0.719336,0 -1.810742,-0.12402 -1.079004,-0.12402 -2.517676,-0.43408 z"
         style="font-style:normal;font-variant:normal;font-weight:normal;font-stretch:normal;font-size:25.39999962px;font-family:'Eras Bold ITC';-inkscape-font-specification:'Eras Bold ITC';fill:#ff9900;fill-opacity:1;stroke-width:0.26458332"
         id="path4548" />
      <path
         d="m 81.967084,286.80529 q 1.699121,0.0248 3.237011,0.0248 2.629297,0 4.117578,-0.0248 -0.16123,1.69912 -0.334863,4.81211 -0.16123,3.11298 -0.198437,4.70048 -1.42627,0.26045 -2.368848,0.37207 -0.930176,0.12403 -2.244824,0.21084 -1.314649,0.0992 -2.344043,0.0992 -1.686719,0 -3.311426,-0.27285 -1.624707,-0.27285 -2.914551,-0.88057 -1.277441,-0.60771 -2.133203,-1.64951 -0.855761,-1.04179 -1.327051,-2.46806 -0.458886,-1.42627 -0.458886,-2.95176 0,-2.51768 1.252636,-4.67569 1.252637,-2.158 3.59668,-3.41064 2.356445,-1.26504 6.077148,-1.26504 2.716114,0 6.015137,0.65733 0,1.81074 0.161231,4.03076 -0.892969,-0.29766 -1.451075,-0.44649 -0.545703,-0.16123 -1.289843,-0.28525 -0.731739,-0.13643 -1.401465,-0.19844 -0.657324,-0.062 -1.178223,-0.062 -1.364258,0 -2.579687,0.39687 -1.21543,0.38448 -2.095996,1.20303 -0.868164,0.80615 -1.302246,1.93477 -0.434083,1.12861 -0.434083,2.38125 0,1.27744 0.496094,2.28203 0.496094,0.99219 1.575098,1.51308 1.079004,0.5209 2.406055,0.5209 1.103808,0 2.418457,-0.32246 l 0.136425,-2.69131 q -0.806152,-0.0372 -0.95498,-0.0372 l -1.314649,0.0124 0.08682,-1.52549 q 0.0124,-0.24805 0.03721,-0.70693 0.02481,-0.47129 0.02481,-1.27744 z"
         style="fill:#000000"
         id="path4550" />
      <path
         d="m 92.868744,287.62384 q 0.235644,-1.22783 0.297656,-1.68672 0.06201,-0.47129 0.198438,-1.46347 3.571875,-0.78135 6.13916,-0.78135 1.463472,0 2.678902,0.33486 1.21543,0.32246 1.89756,1.0542 0.68213,0.73174 0.68213,2.096 0,0.69453 -0.18603,3.12539 -0.18604,2.43086 -0.28526,6.3748 -1.21543,-0.0248 -2.41845,-0.0248 -1.16583,0 -2.480473,0.0248 0.173632,-1.36426 0.384472,-5.63066 -0.471289,0.22324 -0.74414,0.32246 -0.26045,0.0992 -0.930176,0.29765 -0.669727,0.19844 -1.054199,0.33487 -0.372071,0.13642 -0.657325,0.34726 -0.272851,0.21084 -0.396875,0.43409 -0.111621,0.22324 -0.111621,0.49609 0,0.42168 0.334864,0.71934 0.334863,0.29765 1.066601,0.29765 0.260449,0 0.558106,-0.0372 0.297656,-0.0496 0.818554,-0.22324 -0.359668,0.95498 -0.855761,2.79053 -1.066602,0.17363 -2.021582,0.17363 -1.537891,0 -2.567286,-0.42168 -1.016992,-0.43408 -1.575097,-1.38906 -0.545703,-0.95498 -0.545703,-1.90996 0,-0.58291 0.198437,-1.14102 0.21084,-0.5581 0.644922,-1.0914 0.434082,-0.5333 1.016992,-0.90537 0.58291,-0.38448 1.5875,-0.71934 1.016992,-0.33486 2.567285,-0.63252 0.644922,-0.12402 1.178223,-0.26045 0.545703,-0.14883 0.768945,-0.24805 0.235645,-0.11162 0.372071,-0.24804 0.148828,-0.14883 0.210839,-0.29766 0.06201,-0.16123 0.06201,-0.33486 0,-0.47129 -0.396875,-0.71934 -0.396875,-0.26045 -1.16582,-0.26045 -2.133203,0 -5.270996,1.20303 z"
         style="fill:#000000"
         id="path4552" />
      <path
         d="m 107.11904,296.67755 0.34726,-5.97793 0.19844,-4.67568 0.0248,-2.00918 q 1.36426,0.0248 2.40606,0.0248 1.17822,0 2.29443,-0.0248 l -0.0868,1.64951 q 0.38447,-0.49609 0.64492,-0.75654 0.27285,-0.27285 0.65732,-0.5085 0.38448,-0.24805 0.79375,-0.38447 0.40928,-0.14883 0.91778,-0.23565 0.50849,-0.0868 1.0666,-0.0868 0.63252,0 1.16582,0.11162 0.5333,0.0992 0.91777,0.26045 0.38447,0.16123 0.66973,0.37207 0.28525,0.21084 0.49609,0.48369 0.22324,0.26045 0.5085,0.76894 0.5457,-0.79375 1.15342,-1.20302 0.60771,-0.40928 1.37666,-0.59531 0.78134,-0.19844 1.5999,-0.19844 1.079,0 2.03398,0.31006 0.95498,0.31005 1.5627,1.079 0.62011,0.75654 0.62011,1.97197 0,0.57051 -0.0868,1.72393 -0.0744,1.15342 -0.22324,3.96875 -0.13643,2.80293 -0.14883,3.93154 -1.14102,-0.0248 -2.20762,-0.0248 -1.30225,0 -2.72851,0.0248 0.12402,-1.5751 0.24804,-3.94394 0.13643,-2.38125 0.13643,-3.29903 0,-0.79375 -0.18604,-1.17822 -0.18603,-0.39688 -0.48369,-0.5333 -0.28525,-0.14883 -0.63252,-0.14883 -0.37207,0 -0.64492,0.13643 -0.29766,0.14882 -0.5209,0.45888 -0.29765,0.40928 -0.48369,1.0294 -0.14883,0.48369 -0.23564,1.47588 -0.0868,1.01699 -0.13643,2.6789 l -0.0992,3.32383 q -1.32705,-0.0248 -2.39365,-0.0248 -1.09141,0 -2.56729,0.0248 0.11162,-1.10381 0.26045,-3.7083 0.14883,-2.60449 0.14883,-3.48506 0,-0.74414 -0.14883,-1.11621 -0.14883,-0.37207 -0.42168,-0.59531 -0.26045,-0.22324 -0.70693,-0.22324 -0.48369,0 -0.84336,0.28525 -0.35967,0.28525 -0.62012,0.81855 -0.24804,0.53331 -0.35966,1.47588 -0.0992,0.93018 -0.18604,2.85254 -0.0868,1.92237 -0.11162,3.6959 -1.50068,-0.0248 -2.43086,-0.0248 -1.02939,0 -2.55488,0.0248 z"
         style="fill:#000000"
         id="path4554" />
      <path
         d="m 143.02383,292.93204 q -0.16123,0.74414 -0.62012,3.59668 -1.43867,0.28526 -2.41845,0.37207 -0.97979,0.0992 -1.98438,0.0992 -1.47588,0 -2.71611,-0.21084 -1.24024,-0.19844 -2.14561,-0.71933 -0.89297,-0.5209 -1.50068,-1.28985 -0.60772,-0.78134 -0.93018,-1.84795 -0.31005,-1.0666 -0.31005,-2.19521 0,-1.5875 0.63251,-3.10059 0.63252,-1.52549 1.62471,-2.38125 1.00459,-0.85576 2.30684,-1.21543 1.30224,-0.35966 2.6665,-0.35966 1.41387,0 2.69131,0.33486 1.28984,0.32246 2.18281,1.14101 0.89297,0.81856 1.26504,1.84795 0.38447,1.0294 0.38447,2.22002 0,0.70694 -0.16123,1.5751 l -8.69404,0.0124 q -0.0124,0.19844 -0.0124,0.35967 0,1.33945 0.95498,1.97197 0.95498,0.63252 2.33164,0.63252 0.81855,0 1.86035,-0.18603 1.0542,-0.19844 2.59209,-0.65733 z m -7.62744,-4.01836 h 4.09277 q 0.0124,-0.21084 0.0124,-0.35966 0,-0.64493 -0.23565,-1.10381 -0.22324,-0.45889 -0.65732,-0.66973 -0.42168,-0.21084 -0.95498,-0.21084 -0.37207,0 -0.71934,0.12402 -0.34727,0.11163 -0.63252,0.34727 -0.27285,0.22324 -0.45889,0.5209 -0.18603,0.29765 -0.27285,0.58291 -0.0868,0.27285 -0.17363,0.76894 z"
         style="fill:#000000"
         id="path4556" />
    </g>
  </g>
</svg>
