<?xml version="1.0" encoding="UTF-8" standalone="no"?>
<!-- Created with Inkscape (http://www.inkscape.org/) -->

<svg
   xmlns:dc="http://purl.org/dc/elements/1.1/"
   xmlns:cc="http://creativecommons.org/ns#"
   xmlns:rdf="http://www.w3.org/1999/02/22-rdf-syntax-ns#"
   xmlns:svg="http://www.w3.org/2000/svg"
   xmlns="http://www.w3.org/2000/svg"
   xmlns:sodipodi="http://sodipodi.sourceforge.net/DTD/sodipodi-0.dtd"
   xmlns:inkscape="http://www.inkscape.org/namespaces/inkscape"
   width="2880"
   height="1080"
   viewBox="0 0 762 285.75001"
   version="1.1"
   id="svg8"
   inkscape:version="0.92.4 (5da689c313, 2019-01-14)"
   sodipodi:docname="background - Copy (2).svg">
  <defs
     id="defs2" />
  <sodipodi:namedview
     id="base"
     pagecolor="#ffffff"
     bordercolor="#666666"
     borderopacity="1.0"
     inkscape:pageopacity="0.0"
     inkscape:pageshadow="2"
     inkscape:zoom="0.35"
     inkscape:cx="1508.4763"
     inkscape:cy="288.1033"
     inkscape:document-units="px"
     inkscape:current-layer="layer1"
     showgrid="false"
     units="px"
     inkscape:window-width="1920"
     inkscape:window-height="1017"
     inkscape:window-x="-8"
     inkscape:window-y="-8"
     inkscape:window-maximized="1" />
  <metadata
     id="metadata5">
    <rdf:RDF>
      <cc:Work
         rdf:about="">
        <dc:format>image/svg+xml</dc:format>
        <dc:type
           rdf:resource="http://purl.org/dc/dcmitype/StillImage" />
        <dc:title></dc:title>
      </cc:Work>
    </rdf:RDF>
  </metadata>
  <g
     inkscape:label="Layer 1"
     inkscape:groupmode="layer"
     id="layer1"
     transform="translate(0,-11.24994)">
    <path
       style="fill:#6a09ff;fill-opacity:0;fill-rule:nonzero;stroke-width:0.75595242"
       d="M 380.07347,296.30257 393.89393,295.89871 268.4916,153.77966 143.08927,11.660619 l 71.84156,-0.192827 71.84156,-0.192826 1.93728,1.704731 1.93728,1.704731 -1.43467,-1.700892 c -1.24332,-1.474034 -1.27226,-1.700893 -0.21705,-1.700893 1.5161,0 252.6492,284.486587 251.47781,284.877057 -0.46775,0.15589 -1.92746,-0.68948 -3.24379,-1.87865 -2.10386,-1.90055 -2.18567,-1.92516 -0.67617,-0.20322 l 1.7172,1.95889 -13.74738,0.49795 c -7.56105,0.27389 -46.26496,0.42457 -86.00863,0.33485 -39.7437,-0.0897 -66.04206,-0.34483 -58.4408,-0.56695 z m 154.37893,-5.54722 c 0,-0.12634 -1.27566,-1.402 -2.8348,-2.83483 l -2.83483,-2.60514 2.60514,2.83483 c 2.4248,2.63858 3.06449,3.18238 3.06449,2.60514 z m -6.04761,-6.81046 c 0,-0.13009 -1.10559,-1.23565 -2.45684,-2.45684 l -2.45684,-2.2203 2.2203,2.45686 c 2.06962,2.29013 2.69338,2.80432 2.69338,2.22028 z m -5.29167,-6.04075 c 0,-0.12631 -1.27566,-1.40198 -2.83482,-2.83481 l -2.83483,-2.60514 2.60514,2.83482 c 2.4248,2.6386 3.06451,3.1824 3.06451,2.60513 z m -6.0476,-6.81043 c 0,-0.1301 -1.10559,-1.23568 -2.45687,-2.45684 l -2.45684,-2.2203 2.2203,2.45684 c 2.06962,2.29013 2.69341,2.80432 2.69341,2.2203 z m -5.29167,-6.04075 c 0,-0.12633 -1.27569,-1.402 -2.83483,-2.83482 l -2.83482,-2.60514 2.60514,2.83482 c 2.4248,2.63859 3.06451,3.1824 3.06451,2.60514 z m -6.04763,-6.81044 c 0,-0.1301 -1.10559,-1.23568 -2.45685,-2.45684 l -2.45684,-2.2203 2.22031,2.45684 c 2.06962,2.29013 2.69338,2.80432 2.69338,2.2203 z m -5.29167,-6.04075 c 0,-0.12633 -1.27566,-1.402 -2.83483,-2.83482 l -2.83482,-2.60514 2.60514,2.83482 c 2.4248,2.63859 3.06451,3.1824 3.06451,2.60514 z m -6.04761,-6.81044 c 0,-0.1301 -1.10559,-1.23568 -2.45684,-2.45684 l -2.45687,-2.2203 2.22031,2.45684 c 2.06965,2.29013 2.6934,2.80432 2.6934,2.2203 z m -5.29167,-6.04075 c 0,-0.12633 -1.27568,-1.402 -2.83482,-2.83482 l -2.83483,-2.60514 2.60514,2.83482 c 2.4248,2.63859 3.06451,3.1824 3.06451,2.60514 z m -6.04763,-6.81044 c 0,-0.1301 -1.10556,-1.23568 -2.45684,-2.45684 l -2.45684,-2.2203 2.2203,2.45684 c 2.06962,2.29013 2.69338,2.80432 2.69338,2.2203 z m -5.29167,-6.04075 c 0,-0.12633 -1.27566,-1.402 -2.83482,-2.83482 l -2.8348,-2.60515 2.60514,2.83483 c 2.4248,2.63859 3.06448,3.1824 3.06448,2.60514 z m -6.0476,-6.81044 c 0,-0.1301 -1.10559,-1.23568 -2.45685,-2.45684 l -2.45684,-2.2203 2.22028,2.45684 c 2.06965,2.29013 2.69341,2.80432 2.69341,2.2203 z m -6.04764,-6.80357 c 0,-0.1301 -1.10556,-1.23568 -2.45684,-2.45684 l -2.45684,-2.2203 2.2203,2.45684 c 2.06963,2.29013 2.69338,2.80432 2.69338,2.2203 z m -5.29166,-6.04762 c 0,-0.1301 -1.10557,-1.23568 -2.45685,-2.45684 l -2.45684,-2.2203 2.22031,2.45684 c 2.06962,2.29013 2.69338,2.80432 2.69338,2.2203 z m -6.04761,-6.80357 c 0,-0.1301 -1.10559,-1.23568 -2.45684,-2.45685 l -2.45685,-2.22029 2.22031,2.45684 c 2.06962,2.29013 2.69338,2.80432 2.69338,2.2203 z m -5.29167,-6.04762 c 0,-0.1301 -1.10559,-1.23568 -2.45684,-2.45684 l -2.45684,-2.2203 2.2203,2.45684 c 2.06963,2.29013 2.69338,2.80432 2.69338,2.2203 z m -6.04761,-6.80357 c 0,-0.1301 -1.10558,-1.23568 -2.45686,-2.45685 l -2.45685,-2.22029 2.22031,2.45684 c 2.06962,2.29013 2.6934,2.80432 2.6934,2.2203 z m -5.29166,-6.04762 c 0,-0.1301 -1.10559,-1.23568 -2.45687,-2.45684 l -2.45684,-2.2203 2.2203,2.45684 c 2.06963,2.29013 2.69341,2.80432 2.69341,2.2203 z m -6.04764,-6.80357 c 0,-0.1301 -1.10559,-1.23568 -2.45684,-2.45684 l -2.45684,-2.22031 2.2203,2.45685 c 2.06963,2.29013 2.69338,2.80432 2.69338,2.2203 z m -5.29166,-6.04762 c 0,-0.1301 -1.10559,-1.23568 -2.45685,-2.45684 l -2.45684,-2.2203 2.22031,2.45684 c 2.06962,2.29013 2.69338,2.80432 2.69338,2.2203 z m -6.04761,-6.80357 c 0,-0.1301 -1.10559,-1.23568 -2.45684,-2.45684 l -2.45687,-2.22031 2.2203,2.45685 c 2.06965,2.29013 2.69341,2.80432 2.69341,2.2203 z m -5.29167,-6.04762 c 0,-0.1301 -1.10559,-1.23568 -2.45684,-2.45685 l -2.45687,-2.22029 2.22031,2.45684 c 2.06965,2.29013 2.6934,2.80432 2.6934,2.2203 z m -5.29166,-6.04075 c 0,-0.12633 -1.27569,-1.402 -2.83483,-2.83483 l -2.83483,-2.60514 2.60515,2.83483 c 2.4248,2.63859 3.06451,3.1824 3.06451,2.60514 z m -6.04764,-6.81044 c 0,-0.1301 -1.10556,-1.23568 -2.45684,-2.45684 l -2.45684,-2.2203 2.2203,2.45684 c 2.06963,2.29013 2.69338,2.80432 2.69338,2.2203 z m -5.29167,-6.04075 c 0,-0.12633 -1.27566,-1.402 -2.83482,-2.83483 l -2.8348,-2.60514 2.60514,2.83483 c 2.4248,2.63859 3.06448,3.1824 3.06448,2.60514 z m -6.0476,-6.81044 c 0,-0.1301 -1.10559,-1.23568 -2.45684,-2.45684 l -2.45685,-2.22031 2.22028,2.45685 c 2.06965,2.29013 2.69341,2.80432 2.69341,2.2203 z m -5.29167,-6.04076 c 0,-0.12632 -1.27566,-1.40199 -2.83482,-2.83482 l -2.83483,-2.60514 2.60514,2.83482 c 2.4248,2.6386 3.06451,3.1824 3.06451,2.60514 z m -6.04763,-6.81043 c 0,-0.1301 -1.10557,-1.23568 -2.45685,-2.45685 l -2.45684,-2.2203 2.22031,2.45685 c 2.06962,2.29013 2.69338,2.80432 2.69338,2.2203 z m -5.29167,-6.04762 c 0,-0.1301 -1.10556,-1.23568 -2.45684,-2.45684 l -2.45684,-2.2203 2.2203,2.45684 c 2.06962,2.29013 2.69338,2.80432 2.69338,2.2203 z m -6.04761,-6.80357 c 0,-0.1301 -1.10559,-1.23568 -2.45684,-2.45685 l -2.45684,-2.220297 2.2203,2.456847 c 2.06963,2.29013 2.69338,2.80432 2.69338,2.2203 z m -5.29166,-6.04762 c 0,-0.130098 -1.10559,-1.235678 -2.45685,-2.456844 l -2.45684,-2.220301 2.22031,2.456847 c 2.06962,2.290127 2.69338,2.804318 2.69338,2.220298 z m -6.04761,-6.80357 c 0,-0.130101 -1.10559,-1.235681 -2.45687,-2.456846 l -2.45684,-2.220299 2.2203,2.456844 c 2.06963,2.290128 2.69341,2.804319 2.69341,2.220301 z m -5.29167,-6.040757 c 0,-0.126326 -1.27569,-1.401996 -2.83482,-2.834823 l -2.83483,-2.605138 2.60514,2.834823 c 2.4248,2.638589 3.06451,3.182398 3.06451,2.605138 z m -6.04763,-6.810433 c 0,-0.130099 -1.10559,-1.235681 -2.45684,-2.456844 l -2.45685,-2.220302 2.22031,2.456844 c 2.06962,2.290125 2.69338,2.804322 2.69338,2.220302 z m -5.29167,-6.040758 c 0,-0.126325 -1.27566,-1.401995 -2.83482,-2.834822 l -2.83483,-2.605138 2.60514,2.834822 c 2.4248,2.638589 3.06451,3.182398 3.06451,2.605138 z m -6.04761,-6.810433 c 0,-0.130098 -1.10559,-1.235678 -2.45684,-2.456844 l -2.45687,-2.220301 2.22031,2.456844 c 2.06965,2.290124 2.6934,2.804321 2.6934,2.220301 z m -5.29166,-6.040758 c 0,-0.126325 -1.27569,-1.401995 -2.83483,-2.834822 l -2.83482,-2.605138 2.60514,2.834823 c 2.4248,2.638589 3.06451,3.182397 3.06451,2.605137 z m -6.04764,-6.810433 c 0,-0.130098 -1.10556,-1.235678 -2.45684,-2.456844 l -2.45684,-2.220301 2.2203,2.456844 c 2.06963,2.290125 2.69338,2.804321 2.69338,2.220301 z m -5.29166,-6.040757 c 0,-0.126326 -1.27567,-1.401996 -2.83483,-2.83482 l -2.8348,-2.605141 2.60514,2.834823 c 2.4248,2.638592 3.06449,3.182398 3.06449,2.605138 z m -6.04761,-6.810433 c 0,-0.130099 -1.10558,-1.235679 -2.45685,-2.456845 l -2.45685,-2.220301 2.22031,2.456846 c 2.06963,2.290123 2.69339,2.80432 2.69339,2.2203 z m -5.29167,-6.040757 c 0,-0.126326 -1.27567,-1.401996 -2.83482,-2.834822 l -2.83482,-2.605138 2.60514,2.834822 c 2.4248,2.63859 3.0645,3.182398 3.0645,2.605138 z m -6.04762,-6.810433 c 0,-0.130099 -1.10558,-1.235679 -2.45685,-2.456845 l -2.45684,-2.220301 2.2203,2.456845 c 2.06963,2.290124 2.69339,2.804321 2.69339,2.220301 z m -5.29167,-6.040758 c 0,-0.126325 -1.27567,-1.401995 -2.83482,-2.834821 l -2.83482,-2.605138 2.60514,2.834821 c 2.4248,2.638591 3.0645,3.182399 3.0645,2.605138 z"
       id="path4610"
       inkscape:connector-curvature="0" />
    <path
       style="fill:#6a09ff;fill-opacity:0;fill-rule:nonzero;stroke-width:0.75595242"
       d="m 503.93911,296.31244 9.17422,-0.41373 L 390.67972,157.18145 C 323.34125,80.886957 266.87874,16.848342 265.20746,14.873417 l -3.03869,-3.590774 70.56294,0.02187 70.56297,0.02187 76.15344,86.345687 76.15346,86.34568 0.009,56.50744 0.009,56.50744 -30.42709,-0.15322 c -16.73489,-0.0843 -26.29868,-0.33941 -21.25286,-0.56698 z"
       id="path4612"
       inkscape:connector-curvature="0" />
    <g
       id="g4725"
       transform="translate(47.62505)">
      <path
         sodipodi:nodetypes="ccccc"
         inkscape:connector-curvature="0"
         id="path4694"
         d="m 103.94345,259.95827 2.26786,-136.4494 18.89881,0.75595 2.64583,136.07143 c -6.81795,1.36674 -11.38576,5.73367 -23.8125,-0.37798 z"
         style="fill:#522e00;fill-opacity:1;stroke:#000000;stroke-width:0.26458332px;stroke-linecap:butt;stroke-linejoin:miter;stroke-opacity:1" />
      <path
         sodipodi:nodetypes="cccccccccccc"
         inkscape:connector-curvature="0"
         id="path4696"
         d="m 77.107142,182.69429 c 26.862958,4.11745 48.916138,11.9707 76.729168,1.45537 l -19.27679,-35.41422 h 19.27679 l -19.65476,-28.13733 24.94642,-0.97025 -40.06548,-43.176239 -38.175586,45.116739 25.324406,1.94051 -28.348216,25.7117 h 21.922615 z"
         style="fill:#046c00;fill-opacity:1;stroke:none;stroke-width:0.29974893px;stroke-linecap:butt;stroke-linejoin:miter;stroke-opacity:1" />
    </g>
    <path
       style="fill:#522e00;fill-opacity:1;stroke:none;stroke-width:0.26458332px;stroke-linecap:butt;stroke-linejoin:miter;stroke-opacity:1"
       d="m 329.79579,226.55228 h 9.44941 l -2.66946,-52.30245 19.34766,-4.58298 -2.95294,-1.18117 -16.49257,1.00602 -0.44549,-15.13288 -4.34672,0.56697 -0.75595,31.32477 -17.73429,-2.56661 -1.88473,1.62324 19.43002,5.43184 z"
       id="path4702"
       inkscape:connector-curvature="0"
       sodipodi:nodetypes="ccccccccccccc" />
    <g
       transform="matrix(0.65485944,0,0,0.78671816,416.77236,47.390514)"
       id="g4725-6-1">
      <path
         sodipodi:nodetypes="ccccc"
         inkscape:connector-curvature="0"
         id="path4694-2-9"
         d="m 103.94345,259.95827 2.26786,-136.4494 18.89881,0.75595 2.64583,136.07143 c -6.81795,1.36674 -11.38576,5.73367 -23.8125,-0.37798 z"
         style="fill:#522e00;fill-opacity:1;stroke:#000000;stroke-width:0.26458332px;stroke-linecap:butt;stroke-linejoin:miter;stroke-opacity:1" />
      <path
         sodipodi:nodetypes="cccccccccccc"
         inkscape:connector-curvature="0"
         id="path4696-7-5"
         d="m 77.107142,182.69429 c 26.862958,4.11745 48.916138,11.9707 76.729168,1.45537 l -19.27679,-35.41422 h 19.27679 l -19.65476,-28.13733 24.94642,-0.97025 -40.06548,-43.176239 -38.175586,45.116739 25.324406,1.94051 -28.348216,25.7117 h 21.922615 z"
         style="fill:#046c00;fill-opacity:1;stroke:none;stroke-width:0.29974893px;stroke-linecap:butt;stroke-linejoin:miter;stroke-opacity:1" />
    </g>
    <path
       style="fill:#522e00;fill-opacity:1;stroke:none;stroke-width:0.28014296px;stroke-linecap:butt;stroke-linejoin:miter;stroke-opacity:1"
       d="m 652.91398,243.18611 h -7.08081 l 2.00033,-78.24893 -14.49795,-6.85653 2.21275,-1.76713 12.35852,1.50509 0.33383,-22.64008 3.25716,0.84824 0.56646,46.86452 13.289,-3.83986 1.41229,2.4285 -14.55966,8.1265 z"
       id="path4702-8"
       inkscape:connector-curvature="0"
       sodipodi:nodetypes="ccccccccccccc" />
  </g>
</svg>
