<?xml version="1.0" encoding="UTF-8" standalone="no"?>
<!-- Created with Inkscape (http://www.inkscape.org/) -->

<svg
   xmlns:dc="http://purl.org/dc/elements/1.1/"
   xmlns:cc="http://creativecommons.org/ns#"
   xmlns:rdf="http://www.w3.org/1999/02/22-rdf-syntax-ns#"
   xmlns:svg="http://www.w3.org/2000/svg"
   xmlns="http://www.w3.org/2000/svg"
   xmlns:xlink="http://www.w3.org/1999/xlink"
   xmlns:sodipodi="http://sodipodi.sourceforge.net/DTD/sodipodi-0.dtd"
   xmlns:inkscape="http://www.inkscape.org/namespaces/inkscape"
   width="2880"
   height="1080"
   viewBox="0 0 762 285.75001"
   version="1.1"
   id="svg8"
   inkscape:version="0.92.4 (5da689c313, 2019-01-14)"
   sodipodi:docname="background - Copy.svg">
  <defs
     id="defs2">
    <linearGradient
       inkscape:collect="always"
       id="linearGradient4686">
      <stop
         style="stop-color:#45b5ff;stop-opacity:1"
         offset="0"
         id="stop4682" />
      <stop
         style="stop-color:#85f4ff;stop-opacity:1"
         offset="1"
         id="stop4684" />
    </linearGradient>
    <linearGradient
       inkscape:collect="always"
       xlink:href="#linearGradient4686"
       id="linearGradient4688"
       x1="303.9313"
       y1="292.8848"
       x2="304.68726"
       y2="7.2797713"
       gradientUnits="userSpaceOnUse"
       gradientTransform="scale(1.5,1)" />
  </defs>
  <sodipodi:namedview
     id="base"
     pagecolor="#ffffff"
     bordercolor="#666666"
     borderopacity="1.0"
     inkscape:pageopacity="0.0"
     inkscape:pageshadow="2"
     inkscape:zoom="0.35"
     inkscape:cx="1951.9748"
     inkscape:cy="175.93745"
     inkscape:document-units="px"
     inkscape:current-layer="layer1"
     showgrid="false"
     units="px"
     inkscape:window-width="1920"
     inkscape:window-height="1017"
     inkscape:window-x="-8"
     inkscape:window-y="-8"
     inkscape:window-maximized="1"
     width="2880px" />
  <metadata
     id="metadata5">
    <rdf:RDF>
      <cc:Work
         rdf:about="">
        <dc:format>image/svg+xml</dc:format>
        <dc:type
           rdf:resource="http://purl.org/dc/dcmitype/StillImage" />
        <dc:title></dc:title>
      </cc:Work>
    </rdf:RDF>
  </metadata>
  <g
     inkscape:label="Layer 1"
     inkscape:groupmode="layer"
     id="layer1"
     transform="translate(0,-11.249946)">
    <path
       style="fill:#6a09ff;fill-opacity:0;fill-rule:nonzero;stroke-width:0.75595242"
       d="M 380.07346,296.30257 393.89392,295.89871 268.49159,153.77966 143.08926,11.660619 l 71.84156,-0.192827 71.84156,-0.192826 1.93728,1.704731 1.93728,1.704731 -1.43467,-1.700892 c -1.24332,-1.474034 -1.27226,-1.700893 -0.21705,-1.700893 1.5161,0 252.6492,284.486587 251.47781,284.877057 -0.46775,0.15589 -1.92746,-0.68948 -3.24379,-1.87865 -2.10386,-1.90055 -2.18567,-1.92516 -0.67617,-0.20322 l 1.7172,1.95889 -13.74738,0.49795 c -7.56105,0.27389 -46.26496,0.42457 -86.00863,0.33485 -39.7437,-0.0897 -66.04206,-0.34483 -58.4408,-0.56695 z m 154.37893,-5.54722 c 0,-0.12634 -1.27567,-1.402 -2.8348,-2.83483 l -2.83483,-2.60514 2.60514,2.83483 c 2.4248,2.63858 3.06449,3.18238 3.06449,2.60514 z m -6.04761,-6.81046 c 0,-0.13009 -1.10559,-1.23565 -2.45684,-2.45684 l -2.45684,-2.2203 2.2203,2.45686 c 2.06962,2.29013 2.69338,2.80432 2.69338,2.22028 z m -5.29167,-6.04075 c 0,-0.12631 -1.27566,-1.40198 -2.83482,-2.83481 l -2.83483,-2.60514 2.60514,2.83482 c 2.4248,2.6386 3.06451,3.1824 3.06451,2.60513 z m -6.04761,-6.81043 c 0,-0.1301 -1.10558,-1.23568 -2.45686,-2.45684 l -2.45684,-2.2203 2.2203,2.45684 c 2.06962,2.29013 2.6934,2.80432 2.6934,2.2203 z m -5.29166,-6.04075 c 0,-0.12633 -1.27569,-1.402 -2.83483,-2.83482 l -2.83482,-2.60514 2.60514,2.83482 c 2.4248,2.63859 3.06451,3.1824 3.06451,2.60514 z m -6.04764,-6.81044 c 0,-0.1301 -1.10558,-1.23568 -2.45684,-2.45684 l -2.45684,-2.2203 2.22031,2.45684 c 2.06962,2.29013 2.69337,2.80432 2.69337,2.2203 z m -5.29166,-6.04075 c 0,-0.12633 -1.27566,-1.402 -2.83483,-2.83482 l -2.83482,-2.60514 2.60514,2.83482 c 2.4248,2.63859 3.06451,3.1824 3.06451,2.60514 z m -6.04761,-6.81044 c 0,-0.1301 -1.10559,-1.23568 -2.45684,-2.45684 l -2.45687,-2.2203 2.2203,2.45684 c 2.06965,2.29013 2.69341,2.80432 2.69341,2.2203 z m -5.29167,-6.04075 c 0,-0.12633 -1.27569,-1.402 -2.83482,-2.83482 l -2.83483,-2.60514 2.60514,2.83482 c 2.4248,2.63859 3.06451,3.1824 3.06451,2.60514 z m -6.04763,-6.81044 c 0,-0.1301 -1.10556,-1.23568 -2.45684,-2.45684 l -2.45684,-2.2203 2.2203,2.45684 c 2.06962,2.29013 2.69338,2.80432 2.69338,2.2203 z m -5.29167,-6.04075 c 0,-0.12633 -1.27566,-1.402 -2.83482,-2.83482 l -2.8348,-2.60515 2.60514,2.83483 c 2.4248,2.63859 3.06448,3.1824 3.06448,2.60514 z m -6.0476,-6.81044 c 0,-0.1301 -1.10559,-1.23568 -2.45685,-2.45684 l -2.45684,-2.2203 2.22028,2.45684 c 2.06965,2.29013 2.69341,2.80432 2.69341,2.2203 z m -6.04764,-6.80357 c 0,-0.1301 -1.10556,-1.23568 -2.45684,-2.45684 l -2.45684,-2.2203 2.2203,2.45684 c 2.06963,2.29013 2.69338,2.80432 2.69338,2.2203 z m -5.29167,-6.04762 c 0,-0.1301 -1.10556,-1.23568 -2.45684,-2.45684 l -2.45684,-2.2203 2.22031,2.45684 c 2.06962,2.29013 2.69337,2.80432 2.69337,2.2203 z m -6.0476,-6.80357 c 0,-0.1301 -1.10559,-1.23568 -2.45684,-2.45685 l -2.45685,-2.22029 2.22031,2.45684 c 2.06962,2.29013 2.69338,2.80432 2.69338,2.2203 z m -5.29167,-6.04762 c 0,-0.1301 -1.10559,-1.23568 -2.45684,-2.45684 l -2.45684,-2.2203 2.2203,2.45684 c 2.06962,2.29013 2.69338,2.80432 2.69338,2.2203 z m -6.04761,-6.80357 c 0,-0.1301 -1.10559,-1.23568 -2.45687,-2.45685 l -2.45684,-2.22029 2.22031,2.45684 c 2.06962,2.29013 2.6934,2.80432 2.6934,2.2203 z m -5.29166,-6.04762 c 0,-0.1301 -1.10559,-1.23568 -2.45687,-2.45684 l -2.45684,-2.2203 2.2203,2.45684 c 2.06962,2.29013 2.69341,2.80432 2.69341,2.2203 z m -6.04764,-6.80357 c 0,-0.1301 -1.10559,-1.23568 -2.45684,-2.45684 l -2.45684,-2.22031 2.2203,2.45685 c 2.06963,2.29013 2.69338,2.80432 2.69338,2.2203 z m -5.29166,-6.04762 c 0,-0.1301 -1.10559,-1.23568 -2.45685,-2.45684 l -2.45684,-2.2203 2.22031,2.45684 c 2.06962,2.29013 2.69338,2.80432 2.69338,2.2203 z m -6.04761,-6.80357 c 0,-0.1301 -1.10559,-1.23568 -2.45684,-2.45684 l -2.45687,-2.22031 2.2203,2.45685 c 2.06965,2.29013 2.69341,2.80432 2.69341,2.2203 z m -5.29167,-6.04762 c 0,-0.1301 -1.10559,-1.23568 -2.45684,-2.45685 l -2.45687,-2.22029 2.22031,2.45684 c 2.06965,2.29013 2.6934,2.80432 2.6934,2.2203 z m -5.29167,-6.04075 c 0,-0.12633 -1.27568,-1.402 -2.83482,-2.83483 l -2.83483,-2.60514 2.60514,2.83483 c 2.4248,2.63859 3.06451,3.1824 3.06451,2.60514 z m -6.04763,-6.81044 c 0,-0.1301 -1.10556,-1.23568 -2.45684,-2.45684 l -2.45684,-2.2203 2.2203,2.45684 c 2.06963,2.29013 2.69338,2.80432 2.69338,2.2203 z m -5.29167,-6.04075 c 0,-0.12633 -1.27566,-1.402 -2.83482,-2.83483 l -2.8348,-2.60514 2.60514,2.83483 c 2.4248,2.63859 3.06448,3.1824 3.06448,2.60514 z m -6.0476,-6.81044 c 0,-0.1301 -1.10559,-1.23568 -2.45685,-2.45684 l -2.45684,-2.22031 2.22028,2.45685 c 2.06965,2.29013 2.69341,2.80432 2.69341,2.2203 z m -5.29167,-6.04076 c 0,-0.12632 -1.27566,-1.40199 -2.83483,-2.83482 l -2.83482,-2.60514 2.60514,2.83482 c 2.4248,2.6386 3.06451,3.1824 3.06451,2.60514 z m -6.04763,-6.81043 c 0,-0.1301 -1.10557,-1.23568 -2.45685,-2.45685 l -2.45684,-2.2203 2.22031,2.45685 c 2.06962,2.29013 2.69338,2.80432 2.69338,2.2203 z m -5.29167,-6.04762 c 0,-0.1301 -1.10556,-1.23568 -2.45684,-2.45684 l -2.45684,-2.2203 2.2203,2.45684 c 2.06962,2.29013 2.69338,2.80432 2.69338,2.2203 z m -6.04761,-6.80357 c 0,-0.1301 -1.10559,-1.23568 -2.45684,-2.45685 l -2.45684,-2.220297 2.2203,2.456847 c 2.06963,2.29013 2.69338,2.80432 2.69338,2.2203 z m -5.29167,-6.04762 c 0,-0.130098 -1.10558,-1.235678 -2.45684,-2.456844 l -2.45684,-2.220301 2.22031,2.456847 c 2.06962,2.290127 2.69337,2.804318 2.69337,2.220298 z m -6.0476,-6.80357 c 0,-0.130101 -1.10559,-1.235681 -2.45687,-2.456846 l -2.45684,-2.220299 2.2203,2.456844 c 2.06963,2.290128 2.69341,2.804319 2.69341,2.220301 z m -5.29167,-6.040757 c 0,-0.126326 -1.27569,-1.401996 -2.83482,-2.834823 l -2.83483,-2.605138 2.60514,2.834823 c 2.4248,2.638589 3.06451,3.182398 3.06451,2.605138 z m -6.04763,-6.810433 c 0,-0.130099 -1.10559,-1.235681 -2.45685,-2.456844 l -2.45684,-2.220302 2.22031,2.456844 c 2.06962,2.290125 2.69338,2.804322 2.69338,2.220302 z m -5.29167,-6.040758 c 0,-0.126325 -1.27566,-1.401995 -2.83483,-2.834822 l -2.83482,-2.605138 2.60514,2.834822 c 2.4248,2.638589 3.06451,3.182398 3.06451,2.605138 z m -6.04761,-6.810433 c 0,-0.130098 -1.10559,-1.235678 -2.45684,-2.456844 l -2.45687,-2.220301 2.22031,2.456844 c 2.06965,2.290124 2.6934,2.804321 2.6934,2.220301 z m -5.29166,-6.040758 c 0,-0.126325 -1.27569,-1.401995 -2.83483,-2.834822 l -2.83482,-2.605138 2.60514,2.834823 c 2.4248,2.638589 3.06451,3.182397 3.06451,2.605137 z m -6.04764,-6.810433 c 0,-0.130098 -1.10556,-1.235678 -2.45684,-2.456844 l -2.45684,-2.220301 2.2203,2.456844 c 2.06963,2.290125 2.69338,2.804321 2.69338,2.220301 z m -5.29167,-6.040757 c 0,-0.126326 -1.27566,-1.401996 -2.83482,-2.83482 l -2.8348,-2.605141 2.60514,2.834823 c 2.4248,2.638592 3.06448,3.182398 3.06448,2.605138 z m -6.0476,-6.810433 c 0,-0.130099 -1.10559,-1.235679 -2.45685,-2.456845 l -2.45685,-2.220301 2.2203,2.456846 c 2.06964,2.290123 2.6934,2.80432 2.6934,2.2203 z m -5.29167,-6.040757 c 0,-0.126326 -1.27567,-1.401996 -2.83482,-2.834822 l -2.83482,-2.605138 2.60514,2.834822 c 2.4248,2.63859 3.0645,3.182398 3.0645,2.605138 z m -6.04762,-6.810433 c 0,-0.130099 -1.10558,-1.235679 -2.45685,-2.456845 l -2.45684,-2.220301 2.2203,2.456845 c 2.06963,2.290124 2.69339,2.804321 2.69339,2.220301 z M 296.3274,20.88034 c 0,-0.126325 -1.27567,-1.401995 -2.83482,-2.834821 l -2.83482,-2.605138 2.60514,2.834821 c 2.4248,2.638591 3.0645,3.182399 3.0645,2.605138 z"
       id="path4610"
       inkscape:connector-curvature="0" />
    <path
       style="fill:#6a09ff;fill-opacity:0;fill-rule:nonzero;stroke-width:0.75595242"
       d="m 503.9391,296.31244 9.17422,-0.41373 L 390.67971,157.18145 C 323.34124,80.886957 266.87873,16.848342 265.20745,14.873417 l -3.03869,-3.590774 70.56294,0.02187 70.56297,0.02187 76.15344,86.345687 76.15345,86.34568 0.009,56.50744 0.009,56.50744 -30.42709,-0.15322 c -16.73489,-0.0843 -26.29868,-0.33941 -21.25286,-0.56698 z"
       id="path4612"
       inkscape:connector-curvature="0" />
    <rect
       style="fill:url(#linearGradient4688);fill-opacity:1;fill-rule:nonzero;stroke-width:0.32404706"
       id="rect4616"
       width="762"
       height="285.75"
       x="0"
       y="11.24994" />
    <path
       style="fill:#76ff5c;fill-opacity:1;stroke:none;stroke-width:0.25334233px;stroke-linecap:butt;stroke-linejoin:miter;stroke-opacity:1"
       d="M 47.625019,296.99994 H 714.37504 v -123.825 c 0,0 -11.7677,-32.1698 -52.6221,-72.20128 -87.2904,-50.778922 -36.9831,194.87881 -169.00881,31.31334 -49.5265,-61.357872 -68.5865,86.00199 -166.533,34.69917 -58.7741,-30.78489 -172.26581,-14.75176 -220.41527,7.2767 -50.663631,23.17869 -58.170841,-1.35251 -58.170841,-1.35251"
       id="path4692-3"
       inkscape:connector-curvature="0"
       sodipodi:nodetypes="ccccsssc" />
    <path
       style="fill:#76ff5c;fill-opacity:1;stroke:none;stroke-width:0.25334233px;stroke-linecap:butt;stroke-linejoin:miter;stroke-opacity:1"
       d="M 714.37504,297.26453 H 1381.125 V 173.43952 c 0,0 -11.7677,-32.1698 -52.6221,-72.20128 -87.2904,-50.778923 -36.9831,194.87881 -169.0088,31.31334 -49.5265,-61.357872 -68.5865,86.00199 -166.53294,34.69917 -58.77411,-30.78489 -172.26582,-14.75176 -220.41528,7.2767 -50.66363,23.17869 -58.17084,-1.35251 -58.17084,-1.35251"
       id="path4692-3-6"
       inkscape:connector-curvature="0"
       sodipodi:nodetypes="ccccsssc" />
    <path
       style="fill:#76ff5c;fill-opacity:1;stroke:none;stroke-width:0.25334233px;stroke-linecap:butt;stroke-linejoin:miter;stroke-opacity:1"
       d="M -619.12501,296.73537 H 47.625019 V 172.91036 c 0,0 -11.76769,-32.1698 -52.6221098,-72.20128 -87.2904102,-50.778921 -36.9830902,194.87881 -169.0087992,31.31334 -49.5265,-61.35787 -68.5865,86.00199 -166.533,34.69917 -58.77411,-30.78489 -172.26582,-14.75176 -220.41528,7.2767 -50.66363,23.17869 -58.17084,-1.35251 -58.17084,-1.35251"
       id="path4692-3-5"
       inkscape:connector-curvature="0"
       sodipodi:nodetypes="ccccsssc" />
  </g>
</svg>
